<?xml version="1.0" encoding="UTF-8"?> <!-- Generator: Adobe Illustrator 24.2.3, SVG Export Plug-In . SVG Version: 6.00 Build 0) --> <svg xmlns="http://www.w3.org/2000/svg" xmlns:xlink="http://www.w3.org/1999/xlink" version="1.1" id="Laag_1" x="0px" y="0px" viewBox="0 0 677.6 116.2" style="enable-background:new 0 0 677.6 116.2;" xml:space="preserve"> <style type="text/css"> .st0{fill:#242C55;} .st1{fill:#256EB5;} </style> <g> <g> <path id="SVGID_1_" class="st0" d="M46.2,43.3h13.7v58.9H46.2V96c-5.6,5.2-11.6,7.9-18.1,7.9c-8.1,0-14.9-2.9-20.2-8.8 C2.6,89.1,0,81.6,0,72.6c0-8.8,2.6-16.2,7.9-22.1c5.3-5.9,11.9-8.8,19.9-8.8c6.9,0,13,2.8,18.5,8.5L46.2,43.3L46.2,43.3z M13.9,72.6c0,5.7,1.5,10.2,4.5,13.8c3.1,3.6,7,5.4,11.7,5.4c5,0,9.1-1.7,12.2-5.2c3.1-3.6,4.7-8.2,4.7-13.7 c0-5.5-1.6-10.1-4.7-13.7c-3.1-3.5-7.1-5.3-12.1-5.3c-4.7,0-8.6,1.8-11.7,5.3C15.5,62.8,13.9,67.3,13.9,72.6z M75.9,43.3h13.6v5.3 c2.5-2.6,4.7-4.4,6.7-5.4c2-1,4.3-1.5,7-1.5c3.6,0,7.3,1.2,11.2,3.5l-6.2,12.5c-2.6-1.8-5.1-2.8-7.6-2.8 c-7.4,0-11.1,5.6-11.1,16.8v30.6H75.9L75.9,43.3L75.9,43.3z M165.7,45.8v18.1c-3.1-3.8-5.9-6.4-8.4-7.8c-2.4-1.4-5.3-2.2-8.5-2.2 c-5.1,0-9.4,1.8-12.8,5.4c-3.4,3.6-5.1,8.1-5.1,13.5c0,5.5,1.6,10.1,4.9,13.6c3.3,3.6,7.5,5.3,12.6,5.3c3.3,0,6.1-0.7,8.6-2.1 c2.4-1.4,5.3-4,8.5-8v18c-5.5,2.9-11.1,4.3-16.6,4.3c-9.1,0-16.7-2.9-22.9-8.8c-6.1-5.9-9.2-13.3-9.2-22.1s3.1-16.2,9.3-22.3 s13.8-9.1,22.9-9.1C155.1,41.6,160.6,43,165.7,45.8z M191.7,56v46.2h-13.6V56h-5.8V43.3h5.8V21.7h13.6v21.6h10.6V56H191.7z M208.3,18.8c0-2.4,0.9-4.4,2.6-6.2s3.8-2.6,6.2-2.6c2.5,0,4.6,0.9,6.3,2.6c1.7,1.7,2.6,3.8,2.6,6.2s-0.9,4.6-2.6,6.3 c-1.7,1.7-3.8,2.6-6.2,2.6c-2.5,0-4.6-0.9-6.3-2.6S208.3,21.3,208.3,18.8z M224,43.3v58.9h-13.6V43.3H224z M285.8,45.8v18.1 c-3.1-3.8-5.9-6.4-8.4-7.8c-2.4-1.4-5.3-2.2-8.5-2.2c-5.1,0-9.4,1.8-12.8,5.4c-3.4,3.6-5.1,8.1-5.1,13.5c0,5.5,1.6,10.1,4.9,13.6 c3.3,3.6,7.5,5.3,12.6,5.3c3.3,0,6.1-0.7,8.6-2.1c2.4-1.4,5.3-4,8.5-8v18c-5.5,2.9-11,4.3-16.6,4.3c-9.1,0-16.7-2.9-22.9-8.8 c-6.1-5.9-9.2-13.3-9.2-22.1s3.1-16.2,9.3-22.3c6.2-6.1,13.8-9.1,22.9-9.1C275.2,41.6,280.7,43,285.8,45.8z M468,0v50.1 c5.5-5.7,11.6-8.5,18.5-8.5c8,0,14.6,3,19.8,8.9c5.3,5.9,7.9,13.2,7.9,22c0,9.1-2.7,16.6-8,22.5c-5.3,5.9-12,8.8-20,8.8 c-6.8,0-12.9-2.6-18.3-7.9v6.2h-13.6V0H468z M500.4,73.2c0-5.7-1.5-10.2-4.6-13.8c-3.1-3.6-7-5.4-11.7-5.4c-5,0-9.1,1.8-12.2,5.3 c-3.1,3.5-4.7,8-4.7,13.6c0,5.7,1.5,10.3,4.6,13.7c3.1,3.5,7.1,5.3,12.1,5.3c4.7,0,8.6-1.8,11.7-5.3 C498.8,82.9,500.4,78.5,500.4,73.2z M541.1,0v102.2h-13.6V0H541.1z M570.7,43.3v33.8c0,9.8,3.8,14.6,11.6,14.6 c7.7,0,11.6-4.9,11.6-14.6V43.3h13.6v34.1c0,4.7-0.6,8.8-1.8,12.2c-1.1,3.1-3.1,5.8-5.9,8.3c-4.6,4-10.5,6-17.5,6 c-7.1,0-12.9-2-17.5-6c-2.8-2.5-4.8-5.2-6-8.3c-1.1-2.7-1.7-6.8-1.7-12.2V43.3H570.7z M677,76h-42.2c0.4,4.8,1.9,8.7,4.7,11.6 c2.8,2.8,6.3,4.2,10.7,4.2c3.4,0,6.2-0.8,8.4-2.4c2.2-1.6,4.7-4.6,7.4-9l11.5,6.4c-1.8,3-3.7,5.6-5.6,7.8c-2,2.2-4.1,3.9-6.3,5.3 c-2.3,1.4-4.7,2.4-7.3,3.1c-2.6,0.6-5.5,1-8.5,1c-8.8,0-15.8-2.8-21.2-8.5c-5.3-5.7-8-13.2-8-22.6c0-9.3,2.6-16.9,7.8-22.6 c5.2-5.7,12.1-8.5,20.7-8.5c8.7,0,15.5,2.8,20.6,8.3c5,5.5,7.5,13.1,7.5,22.8L677,76z M663.1,64.8c-1.9-7.3-6.5-10.9-13.7-10.9 c-1.7,0-3.2,0.2-4.7,0.8c-1.5,0.5-2.8,1.2-4,2.2c-1.2,0.9-2.2,2.1-3.1,3.4c-0.8,1.3-1.5,2.8-1.9,4.5L663.1,64.8L663.1,64.8z M373,18c-38.3,27.1-46.4,49.2-41.3,76.3c-14-10.2-23.1-29.2-12.8-51.9C336.2,4.4,373,18,373,18 M355.5,107l8-8.1 c-10,3.3-22.5,0.3-32.6-7c5.2,19.2,27.8,24.3,27.8,24.3L355.5,107z M367,109.8c0,0,36.8,13.6,54.1-24.4 c10.3-22.6,1.2-41.7-12.8-51.9C413.3,60.6,405.3,82.7,367,109.8 M384.4,20.8l-8,8.1c10-3.3,22.5-0.3,32.6,7 c-5.2-19.2-27.8-24.3-27.8-24.3L384.4,20.8z"></path> </g> </g> </svg> 