<?xml version="1.0" encoding="UTF-8"?> <!-- Generator: Adobe Illustrator 24.3.0, SVG Export Plug-In . SVG Version: 6.00 Build 0) --> <svg xmlns="http://www.w3.org/2000/svg" xmlns:xlink="http://www.w3.org/1999/xlink" version="1.1" id="Laag_1" x="0px" y="0px" viewBox="0 0 155.4 65" style="enable-background:new 0 0 155.4 65;" xml:space="preserve"> <style type="text/css"> .st0{fill:#FFFFFF;} .st1{fill:#0058A2;} </style> <g> <path class="st0" d="M99.2,60.3H6c-2.1,0-3.7-1.7-3.7-3.8V7.1c0-2.1,1.7-3.8,3.7-3.8h117.5L99.2,60.3z"></path> <path class="st0" d="M120.6,56.3c21.4-8.1,34.5-25.6,29.4-39.1c-5.1-13.5-26.6-17.8-47.9-9.7C80.8,15.5,67.6,33,72.7,46.5 C77.8,60,99.3,64.3,120.6,56.3z"></path> <path class="st1" d="M120.3,55.5c20.7-7.8,33.8-25.2,28.9-38.2c-4.9-13.1-26.1-16.9-46.8-9.1c-20.7,7.8-33.8,24.9-28.8,38 C78.5,59.3,99.6,63.4,120.3,55.5z"></path> <g> <path class="st0" d="M77.6,33.6c0,0,12,7.7,13.9,18.8c0,0,8-33.4,49.6-40.3c0,0-35.4-1.2-50,27.9C91.1,40,83.8,32.6,77.6,33.6z"></path> <path class="st0" d="M134.3,21.1c1.1-0.4,1.6-1.6,1.2-2.7c-0.4-1.1-1.6-1.6-2.7-1.2c-1.1,0.4-1.6,1.6-1.2,2.7 C132,21,133.2,21.5,134.3,21.1z"></path> <path class="st0" d="M126.6,20c0,0-4.3,8,3.5,8.7c0,0,4.9,0.5,12.4-5.6c0,0-3.4,24-43.6,24.3c0,0,31-5,38.3-18.7 c0,0-10.6,7.1-13.9-0.8C123.4,27.8,121.8,24.1,126.6,20z"></path> </g> <g> <g> <path class="st1" d="M72.7,46.5c-5.1-13.5,8.1-31,29.4-39.1c4-1.5,8-2.6,11.9-3.3H6.7c-2,0-3.6,1.6-3.6,3.7v48 c0,2,1.6,3.7,3.6,3.7h84.1C82,57.8,75.3,53.3,72.7,46.5z"></path> </g> </g> <g> <path class="st1" d="M145.7,44.2h-0.9v-0.5h2.4v0.5h-0.9v2.7h-0.6V44.2z"></path> <path class="st1" d="M150.3,45.6c0-0.4,0-0.9,0-1.3h0c-0.1,0.4-0.2,0.8-0.4,1.2l-0.5,1.4h-0.5l-0.4-1.4c-0.1-0.4-0.2-0.8-0.3-1.2 h0c0,0.4,0,0.9-0.1,1.4l-0.1,1.3h-0.5l0.2-3.2h0.8l0.4,1.3c0.1,0.4,0.2,0.8,0.3,1.1h0c0.1-0.3,0.2-0.7,0.3-1.1l0.4-1.3h0.8 l0.2,3.2h-0.6L150.3,45.6z"></path> </g> <g> <g> <path class="st0" d="M7.3,50.5l0.5,2C7.9,53,8,53.5,8.1,54h0c0.1-0.5,0.2-1,0.4-1.5L9,50.5H10l0.6,2c0.1,0.5,0.3,1,0.4,1.5h0 c0.1-0.5,0.2-1,0.3-1.5l0.5-2h1.1L11.4,55h-1.1l-0.5-1.8c-0.1-0.5-0.2-0.9-0.3-1.4h0c-0.1,0.6-0.2,1-0.3,1.4L8.5,55H7.5l-1.3-4.5 H7.3z"></path> <path class="st0" d="M14.4,50.5l0.5,2c0.1,0.5,0.2,1,0.3,1.5h0c0.1-0.5,0.2-1,0.4-1.5l0.6-2.1H17l0.6,2c0.1,0.5,0.3,1,0.4,1.5h0 c0.1-0.5,0.2-1,0.3-1.5l0.5-2h1.1L18.5,55h-1.1l-0.5-1.8c-0.1-0.5-0.2-0.9-0.3-1.4h0c-0.1,0.6-0.2,1-0.3,1.4L15.6,55h-1.1 l-1.3-4.5H14.4z"></path> <path class="st0" d="M21.4,50.5l0.5,2c0.1,0.5,0.2,1,0.3,1.5h0c0.1-0.5,0.2-1,0.4-1.5l0.6-2.1h0.9l0.6,2c0.1,0.5,0.3,1,0.4,1.5h0 c0.1-0.5,0.2-1,0.3-1.5l0.5-2H27L25.5,55h-1.1L24,53.2c-0.1-0.5-0.2-0.9-0.3-1.4h0c-0.1,0.6-0.2,1-0.3,1.4L22.7,55h-1.1l-1.3-4.5 H21.4z"></path> <path class="st0" d="M27.8,55.1c-0.4,0-0.7-0.3-0.7-0.7c0-0.4,0.3-0.7,0.7-0.7c0.4,0,0.7,0.3,0.7,0.7 C28.5,54.8,28.3,55.1,27.8,55.1L27.8,55.1z"></path> <path class="st0" d="M29.5,51.8c0-0.5,0-1,0-1.3h1l0,0.7h0c0.2-0.4,0.6-0.8,1.4-0.8c0.6,0,1.1,0.3,1.2,0.8h0 c0.2-0.2,0.3-0.4,0.6-0.6c0.2-0.2,0.5-0.3,0.9-0.3c0.7,0,1.5,0.5,1.5,1.9V55H35v-2.5c0-0.7-0.3-1.2-0.8-1.2 c-0.4,0-0.7,0.3-0.8,0.6c0,0.1-0.1,0.2-0.1,0.4V55h-1.1v-2.6c0-0.6-0.2-1.1-0.8-1.1c-0.4,0-0.7,0.3-0.8,0.6 c0,0.1-0.1,0.2-0.1,0.4V55h-1.1V51.8z"></path> <path class="st0" d="M37.2,54c0.3,0.2,0.7,0.3,1.2,0.3c0.5,0,0.7-0.2,0.7-0.5c0-0.3-0.2-0.5-0.7-0.7c-0.9-0.3-1.2-0.8-1.2-1.3 c0-0.8,0.7-1.4,1.7-1.4c0.5,0,0.9,0.1,1.2,0.3l-0.2,0.8c-0.2-0.1-0.6-0.3-1-0.3c-0.4,0-0.6,0.2-0.6,0.5c0,0.3,0.2,0.4,0.8,0.6 c0.8,0.3,1.2,0.7,1.2,1.4c0,0.8-0.6,1.4-1.8,1.4c-0.5,0-1-0.1-1.4-0.3L37.2,54z"></path> <path class="st0" d="M44.5,54.9c-0.2,0.1-0.7,0.2-1.3,0.2c-1.4,0-2.3-0.9-2.3-2.3c0-1.3,0.9-2.4,2.5-2.4c0.4,0,0.8,0.1,1.1,0.2 l-0.2,0.9c-0.2-0.1-0.5-0.2-0.9-0.2c-0.9,0-1.4,0.6-1.4,1.5c0,0.9,0.6,1.5,1.4,1.5c0.4,0,0.7-0.1,0.9-0.2L44.5,54.9z"></path> <path class="st0" d="M45.8,55.1c-0.4,0-0.7-0.3-0.7-0.7c0-0.4,0.3-0.7,0.7-0.7c0.4,0,0.7,0.3,0.7,0.7 C46.5,54.8,46.2,55.1,45.8,55.1L45.8,55.1z"></path> <path class="st0" d="M51.7,52.7c0,1.7-1.2,2.4-2.3,2.4c-1.3,0-2.3-0.9-2.3-2.3c0-1.5,1-2.4,2.3-2.4 C50.8,50.4,51.7,51.3,51.7,52.7z M48.3,52.8c0,0.9,0.4,1.5,1.1,1.5c0.6,0,1.1-0.6,1.1-1.5c0-0.7-0.3-1.5-1.1-1.5 C48.6,51.2,48.3,52,48.3,52.8z"></path> <path class="st0" d="M52.6,51.9c0-0.6,0-1,0-1.5h1l0,0.9h0c0.2-0.6,0.7-1,1.2-1c0.1,0,0.2,0,0.3,0v1.1c-0.1,0-0.2,0-0.3,0 c-0.5,0-0.9,0.4-1,0.9c0,0.1,0,0.2,0,0.4V55h-1.1V51.9z"></path> <path class="st0" d="M59.9,54.3c0,0.9-0.2,1.6-0.7,2c-0.5,0.4-1.1,0.5-1.7,0.5c-0.6,0-1.2-0.1-1.6-0.4l0.2-0.9 c0.3,0.2,0.8,0.3,1.3,0.3c0.7,0,1.3-0.4,1.3-1.4v-0.4h0C58.5,54.7,58,55,57.5,55c-1.1,0-1.9-0.9-1.9-2.2c0-1.5,1-2.4,2-2.4 c0.7,0,1.1,0.3,1.3,0.7h0l0-0.6h1c0,0.3,0,0.7,0,1.3V54.3z M58.8,52.3c0-0.1,0-0.2,0-0.3c-0.1-0.4-0.4-0.7-0.9-0.7 c-0.6,0-1.1,0.6-1.1,1.5c0,0.8,0.4,1.4,1.1,1.4c0.4,0,0.8-0.3,0.9-0.7c0-0.1,0-0.3,0-0.4V52.3z"></path> <path class="st0" d="M60.6,55.4l2.3-6.7h0.8l-2.3,6.7H60.6z"></path> <path class="st0" d="M64.2,51.8c0-0.5,0-1,0-1.3h1l0.1,0.7h0c0.2-0.4,0.7-0.8,1.4-0.8c0.8,0,1.6,0.5,1.6,1.9V55h-1.1v-2.5 c0-0.6-0.2-1.1-0.9-1.1c-0.5,0-0.8,0.3-0.9,0.7c0,0.1,0,0.2,0,0.4V55h-1.1V51.8z"></path> <path class="st0" d="M69.5,48.4h1.1V55h-1.1V48.4z"></path> </g> <g> <path class="st0" d="M15.7,41.5c0-1.2-0.1-2.7-0.1-4.2h0c-0.3,1.3-0.7,2.8-1.1,4l-1.3,4h-1.8l-1.1-4c-0.3-1.2-0.7-2.7-0.9-4h0 c-0.1,1.4-0.1,3-0.2,4.3L9,45.4H6.8l0.7-10.3h3.1l1,3.4c0.3,1.2,0.6,2.5,0.9,3.7h0c0.3-1.2,0.6-2.6,1-3.7l1.1-3.4h3l0.6,10.3 h-2.3L15.7,41.5z"></path> <path class="st0" d="M19.4,43c0.6,0.3,1.6,0.6,2.6,0.6c1.1,0,1.6-0.4,1.6-1.1c0-0.6-0.5-1-1.7-1.5c-1.7-0.6-2.8-1.5-2.8-3 c0-1.8,1.5-3.1,3.9-3.1c1.2,0,2,0.2,2.6,0.5l-0.5,1.9c-0.4-0.2-1.1-0.5-2.2-0.5c-1,0-1.5,0.5-1.5,1c0,0.7,0.6,0.9,1.9,1.5 c1.8,0.7,2.7,1.6,2.7,3.1c0,1.7-1.3,3.2-4.2,3.2c-1.2,0-2.3-0.3-2.9-0.6L19.4,43z"></path> <path class="st0" d="M34.6,45.1c-0.4,0.2-1.4,0.5-2.6,0.5c-3.6,0-5.4-2.2-5.4-5.2c0-3.5,2.5-5.5,5.6-5.5c1.2,0,2.1,0.2,2.5,0.5 l-0.5,1.9c-0.5-0.2-1.1-0.4-2-0.4c-1.9,0-3.3,1.1-3.3,3.4c0,2.1,1.2,3.4,3.3,3.4c0.7,0,1.5-0.2,1.9-0.3L34.6,45.1z"></path> </g> <g> <path class="st0" d="M12.1,14.8c-0.4,0.2-1.3,0.4-2.2,0.4c-1.1,0-2-0.3-2.6-0.9c-0.6-0.6-0.9-1.5-0.9-2.5c0-2.1,1.5-3.5,3.7-3.5 c0.8,0,1.5,0.2,1.8,0.3l-0.3,1c-0.4-0.2-0.8-0.3-1.5-0.3c-1.4,0-2.4,0.8-2.4,2.4c0,1.5,0.9,2.4,2.3,2.4c0.4,0,0.8-0.1,0.9-0.1 v-1.7H9.7v-1h2.4V14.8z"></path> <path class="st0" d="M17.1,12.2h-2.5v2h2.8v1h-4.1V8.4h3.9v1h-2.7v1.7h2.5V12.2z"></path> <path class="st0" d="M23.3,14.9c-0.3,0.1-0.9,0.3-1.7,0.3c-2.1,0-3.4-1.3-3.4-3.4c0-2.2,1.5-3.5,3.6-3.5c0.8,0,1.4,0.2,1.6,0.3 l-0.3,1c-0.3-0.1-0.8-0.3-1.3-0.3c-1.4,0-2.4,0.9-2.4,2.5c0,1.5,0.9,2.4,2.3,2.4c0.5,0,1-0.1,1.3-0.2L23.3,14.9z"></path> <path class="st0" d="M28.1,12.2h-2.5v2h2.8v1h-4.1V8.4h3.9v1h-2.7v1.7h2.5V12.2z"></path> <path class="st0" d="M29.5,8.5c0.5-0.1,1.1-0.1,1.9-0.1c1,0,1.6,0.2,2.1,0.5c0.4,0.3,0.6,0.8,0.6,1.3c0,0.9-0.6,1.5-1.2,1.7v0 c0.5,0.2,0.8,0.6,0.9,1.3c0.2,0.8,0.4,1.6,0.5,1.9H33c-0.1-0.2-0.3-0.7-0.4-1.6c-0.2-0.9-0.5-1.2-1.2-1.2h-0.6v2.8h-1.2V8.5z M30.7,11.5h0.7c0.8,0,1.3-0.4,1.3-1.1c0-0.7-0.5-1.1-1.3-1.1c-0.4,0-0.6,0-0.8,0.1V11.5z"></path> <path class="st0" d="M36.5,9.4h-1.9v-1h5.1v1h-1.9v5.7h-1.2V9.4z"></path> <path class="st0" d="M41.7,8.4v6.7h-1.2V8.4H41.7z"></path> <path class="st0" d="M43.1,8.4h3.9v1h-2.6v1.9h2.5v1h-2.5v2.8h-1.2V8.4z"></path> <path class="st0" d="M49.4,8.4v6.7h-1.2V8.4H49.4z"></path> <path class="st0" d="M55.6,14.9c-0.3,0.1-0.9,0.3-1.7,0.3c-2.1,0-3.4-1.3-3.4-3.4c0-2.2,1.5-3.5,3.6-3.5c0.8,0,1.4,0.2,1.6,0.3 l-0.3,1C55,9.4,54.6,9.3,54,9.3c-1.4,0-2.4,0.9-2.4,2.5c0,1.5,0.9,2.4,2.3,2.4c0.5,0,1-0.1,1.3-0.2L55.6,14.9z"></path> <path class="st0" d="M60.4,12.2h-2.5v2h2.8v1h-4.1V8.4h3.9v1h-2.7v1.7h2.5V12.2z"></path> <path class="st0" d="M65.5,12.2H63v2h2.8v1h-4.1V8.4h3.9v1H63v1.7h2.5V12.2z"></path> <path class="st0" d="M66.9,8.5c0.5-0.1,1.1-0.1,1.9-0.1c1,0,1.6,0.2,2.1,0.5c0.4,0.3,0.6,0.8,0.6,1.3c0,0.9-0.6,1.5-1.2,1.7v0 c0.5,0.2,0.8,0.6,0.9,1.3c0.2,0.8,0.4,1.6,0.5,1.9h-1.3c-0.1-0.2-0.3-0.7-0.4-1.6c-0.2-0.9-0.5-1.2-1.2-1.2h-0.6v2.8h-1.2V8.5z M68.1,11.5h0.7c0.8,0,1.3-0.4,1.3-1.1c0-0.7-0.5-1.1-1.3-1.1c-0.4,0-0.6,0-0.8,0.1V11.5z"></path> <path class="st0" d="M72.6,8.5c0.5-0.1,1.2-0.1,2-0.1c1.3,0,2.1,0.3,2.7,0.8c0.6,0.5,1,1.3,1,2.5c0,1.2-0.4,2.1-1,2.7 c-0.7,0.6-1.7,0.9-3,0.9c-0.7,0-1.3,0-1.7-0.1V8.5z M73.8,14.2c0.2,0,0.4,0,0.7,0c1.6,0,2.5-0.9,2.5-2.6c0-1.5-0.8-2.3-2.4-2.3 c-0.4,0-0.7,0-0.8,0.1V14.2z"></path> </g> <g> <path class="st0" d="M6.7,17.1C7.3,17,8,17,8.7,17c1.3,0,2.1,0.3,2.7,0.8c0.6,0.5,1,1.3,1,2.5c0,1.2-0.4,2.1-1,2.7 c-0.7,0.6-1.7,0.9-3,0.9c-0.7,0-1.3,0-1.7-0.1V17.1z M8,22.8c0.2,0,0.4,0,0.7,0c1.6,0,2.5-0.9,2.5-2.6c0-1.5-0.8-2.3-2.4-2.3 c-0.4,0-0.7,0-0.8,0.1V22.8z"></path> <path class="st0" d="M14.7,17v3.9c0,1.3,0.5,1.9,1.4,1.9c0.9,0,1.4-0.6,1.4-1.9V17h1.2v3.8c0,2.1-1.1,3-2.7,3 c-1.6,0-2.6-0.9-2.6-3V17H14.7z"></path> <path class="st0" d="M21.4,17v3.9c0,1.3,0.5,1.9,1.4,1.9c0.9,0,1.4-0.6,1.4-1.9V17h1.2v3.8c0,2.1-1.1,3-2.7,3 c-1.6,0-2.6-0.9-2.6-3V17H21.4z"></path> <path class="st0" d="M26.8,17.1c0.5-0.1,1.1-0.1,1.9-0.1c1,0,1.6,0.2,2.1,0.5c0.4,0.3,0.6,0.8,0.6,1.3c0,0.9-0.6,1.5-1.2,1.7v0 c0.5,0.2,0.8,0.6,0.9,1.3c0.2,0.8,0.4,1.6,0.5,1.9h-1.3c-0.1-0.2-0.3-0.7-0.4-1.6c-0.2-0.9-0.5-1.2-1.2-1.2H28v2.8h-1.2V17.1z M28,20.1h0.7c0.8,0,1.3-0.4,1.3-1.1c0-0.7-0.5-1.1-1.3-1.1c-0.4,0-0.6,0-0.8,0.1V20.1z"></path> <path class="st0" d="M32,23.1l3.4-5v0h-3.1v-1h4.7v0.7l-3.4,4.9v0h3.4v1H32V23.1z"></path> <path class="st0" d="M39.5,21.8l-0.6,1.9h-1.3l2.2-6.7h1.6l2.2,6.7h-1.3l-0.6-1.9H39.5z M41.4,20.9l-0.5-1.7 c-0.1-0.4-0.2-0.9-0.3-1.3h0c-0.1,0.4-0.2,0.9-0.3,1.3l-0.5,1.7H41.4z"></path> <path class="st0" d="M50.1,21c0-0.9-0.1-1.9-0.1-2.8h0c-0.2,0.8-0.5,1.7-0.8,2.6l-1,2.9h-0.9l-0.9-2.9c-0.3-0.9-0.5-1.8-0.7-2.6 h0c0,0.9-0.1,2-0.1,2.9l-0.2,2.7h-1.1l0.4-6.7h1.6l0.9,2.7c0.2,0.8,0.4,1.6,0.6,2.3h0c0.2-0.7,0.4-1.6,0.7-2.3l0.9-2.7h1.6 l0.4,6.7h-1.2L50.1,21z"></path> <path class="st0" d="M56.5,20.8h-2.5v2h2.8v1h-4.1V17h3.9v1h-2.7v1.7h2.5V20.8z"></path> </g> <g> <path class="st0" d="M8.3,32.3l-2.2-6.7h1.3l0.9,3c0.3,0.8,0.5,1.6,0.7,2.5h0c0.2-0.8,0.4-1.6,0.7-2.4l1-3.1H12l-2.3,6.7H8.3z"></path> <path class="st0" d="M13.9,25.6v6.7h-1.2v-6.7H13.9z"></path> <path class="st0" d="M15.3,31c0.4,0.2,1,0.4,1.6,0.4c0.8,0,1.2-0.4,1.2-0.9c0-0.5-0.3-0.8-1.2-1.1c-1.1-0.4-1.8-1-1.8-2 c0-1.1,0.9-1.9,2.4-1.9c0.7,0,1.3,0.2,1.6,0.3l-0.3,1c-0.2-0.1-0.7-0.3-1.3-0.3c-0.8,0-1.1,0.4-1.1,0.8c0,0.5,0.4,0.8,1.3,1.1 c1.2,0.4,1.7,1,1.7,2c0,1.1-0.8,2-2.5,2c-0.7,0-1.4-0.2-1.8-0.4L15.3,31z"></path> <path class="st0" d="M20.5,31c0.4,0.2,1,0.4,1.6,0.4c0.8,0,1.2-0.4,1.2-0.9c0-0.5-0.3-0.8-1.2-1.1c-1.1-0.4-1.8-1-1.8-2 c0-1.1,0.9-1.9,2.4-1.9c0.7,0,1.3,0.2,1.6,0.3l-0.3,1c-0.2-0.1-0.7-0.3-1.3-0.3c-0.8,0-1.1,0.4-1.1,0.8c0,0.5,0.4,0.8,1.3,1.1 c1.2,0.4,1.7,1,1.7,2c0,1.1-0.8,2-2.5,2c-0.7,0-1.4-0.2-1.8-0.4L20.5,31z"></path> <path class="st0" d="M29.4,29.4h-2.5v2h2.8v1h-4.1v-6.7h3.9v1h-2.7v1.7h2.5V29.4z"></path> <path class="st0" d="M30.8,25.7c0.5-0.1,1.1-0.1,1.9-0.1c1,0,1.6,0.2,2.1,0.5c0.4,0.3,0.6,0.8,0.6,1.3c0,0.9-0.6,1.5-1.2,1.7v0 c0.5,0.2,0.8,0.6,0.9,1.3c0.2,0.8,0.4,1.6,0.5,1.9h-1.3c-0.1-0.2-0.3-0.7-0.4-1.6c-0.2-0.9-0.5-1.2-1.2-1.2H32v2.8h-1.2V25.7z M32,28.7h0.7c0.8,0,1.3-0.4,1.3-1.1c0-0.7-0.5-1.1-1.3-1.1c-0.4,0-0.6,0-0.8,0.1V28.7z"></path> <path class="st0" d="M37.7,25.6v6.7h-1.2v-6.7H37.7z"></path> <path class="st0" d="M40.5,25.6h1.2V30c0,1.9-0.9,2.5-2.2,2.5c-0.3,0-0.8-0.1-1-0.2l0.1-1c0.2,0.1,0.5,0.1,0.8,0.1 c0.7,0,1.1-0.3,1.1-1.5V25.6z"></path> </g> </g> </g> </svg> 